<svg data-v-423bf9ae="" xmlns="http://www.w3.org/2000/svg" viewBox="0 0 623 90" class="iconLeft"><!----><!----><!----><g data-v-423bf9ae="" id="4e5c2433-1138-4115-ba6b-3331b2460bdc" fill="white" transform="matrix(5.836575984954834,0,0,5.836575984954834,179.6775360107422,-6.24513578414917)"><path d="M4.48 13.90L4.48 13.90L4.48 13.90Q3.65 13.90 2.99 13.61L2.99 13.61L2.99 13.61Q2.32 13.31 1.88 12.83L1.88 12.83L1.88 12.83Q1.44 12.35 1.15 11.68L1.15 11.68L1.15 11.68Q0.85 11.02 0.73 10.31L0.73 10.31L0.73 10.31Q0.60 9.60 0.60 8.85L0.60 8.85L0.60 8.85Q0.60 7.92 0.82 7.06L0.82 7.06L0.82 7.06Q1.04 6.20 1.48 5.45L1.48 5.45L1.48 5.45Q1.93 4.70 2.70 4.25L2.70 4.25L2.70 4.25Q3.47 3.79 4.48 3.79L4.48 3.79L4.48 3.79Q5.63 3.79 6.40 4.38L6.40 4.38L6.40 4.38Q7.17 4.97 7.52 5.84L7.52 5.84L6.03 6.55L6.03 6.55Q5.73 5.96 5.37 5.67L5.37 5.67L5.37 5.67Q5.01 5.38 4.48 5.38L4.48 5.38L4.48 5.38Q3.72 5.38 3.22 5.94L3.22 5.94L3.22 5.94Q2.72 6.50 2.52 7.25L2.52 7.25L2.52 7.25Q2.32 7.99 2.32 8.85L2.32 8.85L2.32 8.85Q2.32 10.23 2.88 11.28L2.88 11.28L2.88 11.28Q3.44 12.32 4.48 12.32L4.48 12.32L4.48 12.32Q5.46 12.32 6.05 11.06L6.05 11.06L7.56 11.63L7.56 11.63Q6.64 13.90 4.48 13.90ZM12.94 13.92L12.94 13.92L12.94 13.92Q11.35 13.92 10.43 12.92L10.43 12.92L10.43 12.92Q9.51 11.91 9.51 10.18L9.51 10.18L9.51 10.18Q9.51 8.46 10.43 7.44L10.43 7.44L10.43 7.44Q11.35 6.43 12.94 6.43L12.94 6.43L12.94 6.43Q14.53 6.43 15.45 7.44L15.45 7.44L15.45 7.44Q16.37 8.46 16.37 10.18L16.37 10.18L16.37 10.18Q16.37 11.90 15.45 12.91L15.45 12.91L15.45 12.91Q14.53 13.92 12.94 13.92ZM12.94 12.38L12.94 12.38L12.94 12.38Q13.80 12.38 14.27 11.79L14.27 11.79L14.27 11.79Q14.74 11.20 14.74 10.18L14.74 10.18L14.74 10.18Q14.74 9.16 14.27 8.55L14.27 8.55L14.27 8.55Q13.80 7.95 12.94 7.95L12.94 7.95L12.94 7.95Q12.08 7.95 11.61 8.55L11.61 8.55L11.61 8.55Q11.13 9.16 11.13 10.18L11.13 10.18L11.13 10.18Q11.13 11.19 11.61 11.78L11.61 11.78L11.61 11.78Q12.08 12.38 12.94 12.38ZM22.36 3.64L22.36 12.33L24.44 12.33L24.44 13.75L18.66 13.75L18.66 12.33L20.75 12.33L20.75 5.05L19.08 5.05L18.34 3.64L22.36 3.64ZM29.93 13.92L29.93 13.92L29.93 13.92Q28.46 13.92 27.62 12.93L27.62 12.93L27.62 12.93Q26.78 11.94 26.78 10.16L26.78 10.16L26.78 10.16Q26.78 8.44 27.64 7.43L27.64 7.43L27.64 7.43Q28.50 6.43 29.89 6.43L29.89 6.43L29.89 6.43Q31.04 6.43 31.67 7.11L31.67 7.11L31.67 4.38L33.28 3.64L33.28 13.75L31.67 13.75L31.67 13.20L31.67 13.20Q31.44 13.50 30.98 13.71L30.98 13.71L30.98 13.71Q30.51 13.92 29.93 13.92ZM30.16 12.38L30.16 12.38L30.16 12.38Q31.21 12.38 31.67 11.68L31.67 11.68L31.67 8.65L31.67 8.65Q31.16 7.95 30.13 7.95L30.13 7.95L30.13 7.95Q29.30 7.95 28.85 8.53L28.85 8.53L28.85 8.53Q28.41 9.10 28.41 10.16L28.41 10.16L28.41 10.16Q28.41 11.17 28.86 11.77L28.86 11.77L28.86 11.77Q29.32 12.38 30.16 12.38ZM37.23 13.75L35.56 13.75L35.56 3.95L42.17 3.95L42.17 5.53L37.23 5.53L37.23 7.90L40.82 7.90L40.82 9.48L37.23 9.48L37.23 13.75ZM49.29 6.43L49.29 6.43L49.29 6.43Q50.26 6.43 50.97 6.80L50.97 6.80L50.97 9.45L49.41 9.45L49.41 7.92L49.27 7.92L49.27 7.92Q48.16 7.92 47.56 8.44L47.56 8.44L47.56 8.44Q46.96 8.96 46.96 10.00L46.96 10.00L46.96 12.33L48.96 12.33L48.96 13.75L43.83 13.75L43.83 12.33L45.35 12.33L45.35 8.01L43.83 8.01L43.83 6.59L46.84 6.59L46.84 7.74L46.84 7.74Q47.14 7.13 47.81 6.78L47.81 6.78L47.81 6.78Q48.48 6.43 49.29 6.43ZM56.06 13.92L56.06 13.92L56.06 13.92Q54.47 13.92 53.55 12.92L53.55 12.92L53.55 12.92Q52.63 11.91 52.63 10.18L52.63 10.18L52.63 10.18Q52.63 8.46 53.55 7.44L53.55 7.44L53.55 7.44Q54.47 6.43 56.06 6.43L56.06 6.43L56.06 6.43Q57.65 6.43 58.57 7.44L58.57 7.44L58.57 7.44Q59.49 8.46 59.49 10.18L59.49 10.18L59.49 10.18Q59.49 11.90 58.57 12.91L58.57 12.91L58.57 12.91Q57.65 13.92 56.06 13.92ZM56.06 12.38L56.06 12.38L56.06 12.38Q56.92 12.38 57.39 11.79L57.39 11.79L57.39 11.79Q57.86 11.20 57.86 10.18L57.86 10.18L57.86 10.18Q57.86 9.16 57.39 8.55L57.39 8.55L57.39 8.55Q56.92 7.95 56.06 7.95L56.06 7.95L56.06 7.95Q55.20 7.95 54.73 8.55L54.73 8.55L54.73 8.55Q54.25 9.16 54.25 10.18L54.25 10.18L54.25 10.18Q54.25 11.19 54.73 11.78L54.73 11.78L54.73 11.78Q55.20 12.38 56.06 12.38ZM65.18 6.43L65.18 6.43L65.18 6.43Q66.36 6.43 67.10 7.13L67.10 7.13L67.10 7.13Q67.83 7.84 67.83 9.38L67.83 9.38L67.83 13.75L66.22 13.75L66.22 9.72L66.22 9.72Q66.22 8.79 65.81 8.37L65.81 8.37L65.81 8.37Q65.41 7.95 64.74 7.95L64.74 7.95L64.74 7.95Q63.15 7.95 63.15 9.69L63.15 9.69L63.15 13.75L61.54 13.75L61.54 6.59L63.03 6.59L63.03 7.48L63.03 7.48Q63.24 7.06 63.85 6.74L63.85 6.74L63.85 6.74Q64.46 6.43 65.18 6.43ZM73.96 13.92L73.96 13.92L73.96 13.92Q71.86 13.92 71.86 11.97L71.86 11.97L71.86 8.01L70.36 8.01L70.36 6.59L71.86 6.59L71.86 4.41L73.47 3.64L73.47 6.59L75.91 6.59L75.91 8.01L73.47 8.01L73.47 11.66L73.47 11.66Q73.47 12.49 74.48 12.49L74.48 12.49L74.48 12.49Q75.07 12.49 75.71 12.15L75.71 12.15L75.52 13.59L75.52 13.59Q74.90 13.92 73.96 13.92Z"></path></g><!----><g data-v-423bf9ae="" id="6687acf6-9f9c-43ec-b647-1f9a9200ba7b" transform="matrix(1.6317945718765259,0,0,1.6317945718765259,0.41027140617370605,0.0000016391436474805232)" stroke="none" fill="white"><path d="M77.959 55.154H11.282C5.061 55.154 0 50.093 0 43.873c0-5.278 3.643-9.721 8.546-10.946 2.188-5.469 7.248-9.386 13.149-10.089C22.317 10.14 32.843 0 45.693 0c9.417 0 17.822 5.536 21.723 13.756a21.944 21.944 0 0 1 10.543-2.682c12.153 0 22.041 9.887 22.041 22.04 0 12.153-9.887 22.04-22.041 22.04z"></path></g><!----></svg>