<svg width="300" height="50" viewBox="0 0 623 90" fill="none" xmlns="http://www.w3.org/2000/svg">
<g clip-path="url(#clip0_101_17)">
<path d="M205.825 74.8833C202.596 74.8833 199.697 74.3191 197.129 73.1907C194.522 72.0233 192.362 70.5058 190.65 68.6381C188.938 66.7704 187.518 64.5331 186.39 61.9261C185.222 59.358 184.405 56.6926 183.938 53.93C183.432 51.1673 183.179 48.3268 183.179 45.4086C183.179 41.7899 183.607 38.3074 184.463 34.9611C185.32 31.6148 186.604 28.4825 188.316 25.5642C190.067 22.6459 192.44 20.3113 195.436 18.5603C198.432 16.7704 201.895 15.8755 205.825 15.8755C210.3 15.8755 214.035 17.0233 217.032 19.3191C220.028 21.6148 222.207 24.4553 223.569 27.8405L214.872 31.9844C213.705 29.6887 212.421 27.9767 211.02 26.8482C209.619 25.7198 207.888 25.1556 205.825 25.1556C202.868 25.1556 200.417 26.2451 198.471 28.4241C196.526 30.6031 195.164 33.1518 194.386 36.07C193.607 38.9494 193.218 42.0623 193.218 45.4086C193.218 50.7782 194.308 55.5058 196.487 59.5914C198.666 63.6381 201.779 65.6615 205.825 65.6615C209.639 65.6615 212.693 63.2101 214.989 58.3074L223.802 61.6342C220.222 70.4669 214.23 74.8833 205.825 74.8833ZM255.203 75C249.016 75 244.133 73.0545 240.553 69.1634C236.973 65.2335 235.183 59.9027 235.183 53.1712C235.183 46.4786 236.973 41.1479 240.553 37.179C244.133 33.249 249.016 31.284 255.203 31.284C261.39 31.284 266.273 33.249 269.853 37.179C273.432 41.1479 275.222 46.4786 275.222 53.1712C275.222 59.8638 273.432 65.1751 269.853 69.1051C266.273 73.035 261.39 75 255.203 75ZM255.203 66.0117C258.549 66.0117 261.137 64.8638 262.965 62.5681C264.794 60.2724 265.709 57.1401 265.709 53.1712C265.709 49.2023 264.794 46.0311 262.965 43.6576C261.137 41.323 258.549 40.1556 255.203 40.1556C251.856 40.1556 249.269 41.323 247.44 43.6576C245.572 46.0311 244.639 49.2023 244.639 53.1712C244.639 57.1012 245.572 60.214 247.44 62.5097C249.269 64.8444 251.856 66.0117 255.203 66.0117ZM310.183 15V65.7198H322.323V74.0078H288.588V65.7198H300.786V23.2296H291.039L286.72 15H310.183ZM354.366 75C348.646 75 344.152 73.0739 340.884 69.2218C337.615 65.3697 335.981 59.9805 335.981 53.0545C335.981 46.3619 337.654 41.0506 341 37.1206C344.347 33.2296 348.724 31.284 354.133 31.284C358.607 31.284 362.07 32.607 364.522 35.2529V19.3191L373.919 15V74.0078H364.522V70.7977C363.627 71.965 362.285 72.9572 360.495 73.7743C358.666 74.5914 356.623 75 354.366 75ZM355.709 66.0117C359.794 66.0117 362.732 64.6498 364.522 61.9261V44.2412C362.537 41.5175 359.541 40.1556 355.534 40.1556C352.304 40.1556 349.814 41.284 348.063 43.5409C346.351 45.7588 345.495 48.93 345.495 53.0545C345.495 56.9844 346.37 60.1167 348.121 62.4514C349.911 64.8249 352.44 66.0117 355.709 66.0117ZM396.973 74.0078H387.226V16.8093H425.806V26.0311H396.973V39.8638H417.927V49.0856H396.973V74.0078ZM467.362 31.284C471.137 31.284 474.405 32.0039 477.168 33.4436V48.9105H468.063V39.9805H467.246C462.927 39.9805 459.6 40.9922 457.265 43.0156C454.93 45.0389 453.763 48.0739 453.763 52.1206V65.7198H465.436V74.0078H435.495V65.7198H444.366V40.5058H435.495V32.2179H453.063V38.93C454.23 36.5564 456.117 34.6887 458.724 33.3268C461.331 31.965 464.211 31.284 467.362 31.284ZM506.876 75C500.689 75 495.806 73.0545 492.226 69.1634C488.646 65.2335 486.857 59.9027 486.857 53.1712C486.857 46.4786 488.646 41.1479 492.226 37.179C495.806 33.249 500.689 31.284 506.876 31.284C513.063 31.284 517.946 33.249 521.526 37.179C525.106 41.1479 526.895 46.4786 526.895 53.1712C526.895 59.8638 525.106 65.1751 521.526 69.1051C517.946 73.035 513.063 75 506.876 75ZM506.876 66.0117C510.222 66.0117 512.81 64.8638 514.639 62.5681C516.467 60.2724 517.382 57.1401 517.382 53.1712C517.382 49.2023 516.467 46.0311 514.639 43.6576C512.81 41.323 510.222 40.1556 506.876 40.1556C503.53 40.1556 500.942 41.323 499.113 43.6576C497.246 46.0311 496.312 49.2023 496.312 53.1712C496.312 57.1012 497.246 60.214 499.113 62.5097C500.942 64.8444 503.53 66.0117 506.876 66.0117ZM560.106 31.284C564.697 31.284 568.432 32.6459 571.312 35.3697C574.152 38.1323 575.572 42.5097 575.572 48.5019V74.0078H566.176V50.4864C566.176 46.8677 565.378 44.2412 563.783 42.607C562.226 40.9728 560.144 40.1556 557.537 40.1556C551.351 40.1556 548.257 43.5409 548.257 50.3113V74.0078H538.86V32.2179H547.557V37.4125C548.374 35.7782 549.969 34.3385 552.343 33.0934C554.716 31.8872 557.304 31.284 560.106 31.284ZM611.351 75C603.179 75 599.094 71.2062 599.094 63.6187V40.5058H590.339V32.2179H599.094V19.4942L608.491 15V32.2179H622.732V40.5058H608.491V61.8093C608.491 65.0389 610.456 66.6537 614.386 66.6537C616.681 66.6537 619.074 65.9922 621.565 64.6693L620.456 73.0739C618.043 74.358 615.008 75 611.351 75Z" fill="white"/>
<path d="M127.623 90H18.8202C8.66879 90 0.410278 81.7415 0.410278 71.5917C0.410278 62.9791 6.35491 55.729 14.3556 53.7301C17.926 44.8058 26.1828 38.4141 35.8121 37.2669C36.827 16.5464 54.0033 0 74.9719 0C90.3385 0 104.054 9.03361 110.419 22.447C115.696 19.5672 121.612 18.0622 127.623 18.0705C147.455 18.0705 163.59 34.204 163.59 54.0352C163.59 73.8664 147.456 90 127.623 90Z" fill="white"/>
</g>
<defs>
<clipPath id="clip0_101_17">
<rect width="623" height="90" fill="white"/>
</clipPath>
</defs>
</svg>